<?xml version="1.0" encoding="UTF-8" standalone="no"?>
<!-- Created with Inkscape (http://www.inkscape.org/) -->

<svg
   version="1.1"
   id="svg2"
   width="257.33334"
   height="257.33334"
   viewBox="0 0 257.33334 257.33334"
   sodipodi:docname="IPN.eps"
   xmlns:inkscape="http://www.inkscape.org/namespaces/inkscape"
   xmlns:sodipodi="http://sodipodi.sourceforge.net/DTD/sodipodi-0.dtd"
   xmlns="http://www.w3.org/2000/svg"
   xmlns:svg="http://www.w3.org/2000/svg">
  <defs
     id="defs6" />
  <sodipodi:namedview
     id="namedview4"
     pagecolor="#ffffff"
     bordercolor="#000000"
     borderopacity="0.25"
     inkscape:showpageshadow="2"
     inkscape:pageopacity="0.0"
     inkscape:pagecheckerboard="0"
     inkscape:deskcolor="#d1d1d1" />
  <g
     id="g8"
     inkscape:groupmode="layer"
     inkscape:label="ink_ext_XXXXXX"
     transform="matrix(1.3333333,0,0,-1.3333333,0,257.33333)">
    <g
       id="g10"
       transform="scale(0.1)">
      <path
         d="M 0,1927.56 H 1927.56 V 0 H 0 v 1927.56"
         style="fill:#ffffff;fill-opacity:1;fill-rule:evenodd;stroke:none"
         id="path12" />
      <path
         d="m 1241.79,308.246 c 2.35,-3.148 3.53,-6.465 3.53,-9.961 0,-16.933 -29.64,-30.722 -66.19,-30.722 -36.56,0 -66.36,13.789 -66.36,30.722 0,27.242 58.43,33.18 72.75,31.434 16.01,-1.746 30.16,-4.887 45.14,-12.571 v 14.493 c -7.24,2.793 -16.33,5.406 -23.75,6.632 -32,4.016 -75.12,4.016 -103.25,-20.25 -0.84,-0.523 -1.85,-1.23 -3.03,-2.273 -14.49,-12.566 -12.8,-24.273 -8.59,-34.398 3.21,-7.672 17.01,-17.102 23.91,-21.473 v -0.176 c 0.18,0 0.51,-0.172 0.69,-0.344 2.01,-1.226 3.19,-1.925 3.19,-1.925 v 0.347 c 29.31,-14.836 56.6,-12.918 86.75,-9.949 35.37,6.289 61.14,24.266 61.14,45.227 0,15.882 -15.49,27.929 -25.93,33.691 0,-5.414 0,-12.398 0,-18.504 z M 803.164,916.879 V 872.18 c 5.223,0.527 10.441,0.879 16,0.879 4.883,0 9.77,-0.172 14.656,-0.7 l 0.84,46.618 -31.496,-2.098 z m -6.066,-37.539 v 36.844 c -6.395,-4.016 -38.739,-27.414 -38.571,-52.551 -3.875,-37.367 31.5,-63.383 40.598,-65.996 35.711,-9.078 160.184,-51.328 166.922,-104.762 8.754,-92.887 -84.563,-145.266 -147.723,-145.605 l -4.719,-52.907 c 0,0 20.215,-41.734 86.079,-65.129 40.929,-8.73 65.347,-6.285 80.679,-1.046 16.508,6.636 39.927,21.828 50.867,38.757 2.03,7.16 3.37,13.973 4.55,19.379 -0.85,40.86 -29.48,109.828 -54.913,167.965 5.559,28.461 3.539,56.57 -3.707,74.031 -9.097,18.684 -12.461,27.41 -41.941,48.887 -43.117,31.426 -123.293,49.93 -140.645,69.137 -6.738,9.25 -5.726,29.511 2.524,32.996 z m 238.352,230.64 c 6.9,-8.03 12.62,-15.71 17.68,-24.44 41.78,-12.04 79,-25.66 111.01,-37.36 -0.69,84.85 -13.65,171.1 -50.87,252.98 l -77.82,-191.18 z m -8.25,-654.207 c -11.47,-14.66 -32.016,-25.835 -47.509,-32.472 v 0 c -102.078,-26.535 -169.621,59.707 -171.304,68.965 -1.688,8.73 3.707,47.488 4.715,54.476 -3.032,0.176 -6.903,0 -9.938,0.176 -0.34,-4.898 -5.394,-50.984 -5.394,-55.527 16.007,-28.106 22.234,-36.313 58.621,-59.364 34.027,-17.629 84.558,-28.457 124.98,-15.191 0.176,0 5.895,2.621 0.68,0.18 19.029,8.379 26.099,13.968 31.329,19.554 5.89,5.414 14.14,17.985 13.82,19.203 z m 177.86,-112.261 c 7.75,-1.223 15.16,-3.145 22.07,-5.418 l 3.21,2.453 v -0.18 h -0.18 v 88.172 h -0.17 v 0.352 h -55.42 l 30.49,-85.379 z m 45.48,-16.235 c 6.23,-4.019 11.62,-8.558 15.84,-13.621 l 11.28,13.621 h -27.12 z m 23.24,-26.191 c 1.35,-3.672 2.19,-7.684 2.19,-11.703 0,-28.461 -36.72,-52.028 -84.05,-55.692 l -37.05,-28.988 h -60.64 l 2.19,-30.902 -14.82,-25.664 -114.209,0.176 -6.399,11.699 -114.707,0.699 -6.906,24.09 -61.316,2.097 -37.391,19.903 -1.344,26.187 3.027,28.813 -76.132,0.176 -16.676,29.5 -4.715,7.336 V 328.5 l 12.629,35.957 -46.316,1.578 c -9.938,-13.625 -31.504,-24.793 -73.61,-24.965 -71.254,2.09 -83.211,39.285 -74.621,64.422 6.402,13.094 28.465,17.289 33.016,19.383 v 454.992 l 43.457,57.965 8.758,-2.621 43.457,-57.961 V 509.379 l 11.957,-0.176 c -6.735,15.184 -13.133,30.906 -19.032,46.969 l -35.711,-38.067 -0.503,-0.351 3.535,-7.852 28.636,-0.351 v 359.84 l -40.089,53.957 -35.543,-44.703 V 426.27 c 22.578,2.621 43.964,1.746 66.203,-1.219 l -3.875,23.566 40.761,45.571 -16.339,0.519 c 0,0.176 0,-66.519 0,-74.203 -3.032,0.527 -7.918,1.394 -11.118,1.746 v 72.809 l -54.914,1.57 -2.859,7.859 v 0 l -1.348,4.192 -10.953,30.726 0.508,-0.351 -2.191,6.64 7.918,27.051 44.636,57.453 c -0.84,2.961 -1.511,6.106 -2.355,9.254 l -75.461,4.887 -5.055,10.125 -1.519,-0.176 -7.075,37.891 12.637,21.297 52.551,54.824 c -1.344,11.875 -2.524,23.922 -3.703,36.14 l -45.141,27.762 -1.183,0.172 -20.887,8.035 v 34.57 l 18.867,15.192 19.035,9.426 26.11,33.523 c 0,4.012 0.336,9.949 0.503,13.965 l -57.941,-5.758 c 0,0 18.863,15.711 49.184,37.711 l -36.383,20.774 -14.992,15.717 4.043,42.77 22.23,4.9 45.649,0.69 c 2.191,13.97 4.714,27.76 7.582,41.38 V 998.941 c 3.539,2.439 7.074,4.889 10.609,7.339 v 67.04 l 37.059,5.59 v -48.72 c 3.539,2.27 7.07,4.37 10.781,6.63 v 43.66 l 32.34,4.71 v -29.68 c 3.535,2.1 7.074,4.02 10.781,5.94 v 25.49 l 43.121,6.28 v -10.3 c 3.531,1.57 7.074,3.14 10.777,4.71 v 7.16 l 28.969,4.55 c 21.902,8.03 43.797,14.13 64.852,17.8 v 47.49 c -5.219,0.7 -12.461,2.79 -13.981,8.56 -3.371,11.87 -2.355,21.3 5.563,29.51 -1.52,6.46 -8.762,11.34 -14.993,13.96 v 49.76 l 39.922,9.26 13.137,-38.42 13.984,-0.17 -13.144,41.03 10.613,2.27 45.817,-139.68 c 17.855,-2.27 35.539,-1.22 53.054,-6.11 l 5.903,11.17 c -15.672,1.93 -31.164,4.54 -46.828,2.97 l -44.133,134.79 12.125,2.97 8.425,-27.06 127.172,28.11 14.828,36.14 38.74,10.3 -87.423,-227.5 c 5.223,-1.04 10.609,-2.27 16.004,-3.32 l 87.589,234.66 18.02,4.37 c 4.72,-15.2 3.71,-26.19 -4.04,-43.65 l -79.85,-200.61 c 4.55,-1.05 9.27,-2.27 13.82,-3.49 l 83.04,207.94 c 6.57,15.19 5.9,28.63 -0.68,42.77 l 162.89,38.41 45.65,-26.19 67.55,16.59 -70.25,41.38 -531.767,-130.6 v 47.32 l 16.844,4.54 v 32.12 l -33.015,11.18 v 13.79 l 33.015,-12.04 v 130.77 l -33.015,17.11 v 13.96 l 33.015,-17.63 v 104.41 l 7.246,3.84 v 10.3 l -40.261,20.95 v 13.79 l 40.261,-21.47 v 107.02 l -40.765,24.8 v -108.95 l -53.903,-20.26 v 123.62 l 53.903,25.67 141.66,-88 v -103.88 l 9.43,-5.42 v 69.67 l 102.082,33.52 87.08,-52.9 v -153.47 c -1.35,-36.14 -35.54,-50.28 -76.14,-61.98 v -52.21 l 81.7,20.61 v 338.54 l 61.98,23.22 58.79,-34.75 v 57.97 l 57.78,20.78 v -1.93 l 73.94,-39.45 V 1441.2 l 40.6,-25.67 v -55.35 l -85.41,-18.5 98.21,-55.7 -1.02,-44.35 -6.06,-16.76 -52.21,-51.85 -0.68,-5.42 6.9,0.7 76.65,-35.79 v -66.7 l -71.09,-30.56 v -42.074 l 72.61,-28.629 v -65.824 l -70.08,-13.45 0.34,-48.007 63.16,-48.192 -2.02,-63.554 -70.74,4.023 -9.94,-37.891 55.08,-65.468 -0.84,-52.727 -9.77,-9.262 -73.78,6.461 0.17,-18.16 50.2,-79.613 v -16.762 l -17.7,-43.996 h -81.18 l 27.45,-78.562 v -12.575 l -20.72,-19.902 z M 1168.85,233.52 c -19.54,1.218 -37.4,5.929 -51.71,12.746 l 1.17,-11.528 -23.06,-15.363 h 56.08 l 17.52,14.145 z m -71.25,86.246 c 5.72,5.066 12.8,9.605 21.05,13.445 v 570.402 l 12.46,23.918 h -0.16 l 10.1,18.508 h -0.16 l 29.98,56.911 17.35,3.5 53.57,-90.798 V 613.957 h 0.33 v -0.172 l 60.3,-40.508 h 1.01 v -11.519 h -61.31 v -0.352 h -0.33 V 447.215 h -11.63 v 461.637 l -49.19,83.808 -24.58,-44.351 v 0 l -13.31,-23.918 v 0 l -11.45,-20.778 -2.36,-516.629 V 369.176 358.18 l -10.79,-5.239 c -5.21,-12.574 -16.33,-11.347 -24.42,-23.925 l 3.54,-9.25 z m 91.97,-12.922 h -63.51 c 5.73,10.125 26.45,17.808 51.04,17.808 28.97,0 52.56,-10.472 52.56,-23.566 0,-12.926 -23.59,-23.398 -52.56,-23.398 -27.63,0 -50.36,9.601 -52.39,21.652 h 64.86 v 7.504 z m 52.05,34.047 h 0.17 v 87.648 h 0.33 v 0.352 h 4.04 v 0 l 2.36,-2.793 27.45,-85.207 h -34.35 v 0 z m -11.63,101.613 v 4.019 l -36.22,39.981 c -7.4,-15.191 -15.16,-30.031 -23.4,-44 h 59.62 z m -76.97,486.078 10.43,18.856 7.93,0.695 c 0.67,-4.367 1.01,-12.395 0.84,-17.985 l -19.2,-1.566 z m -19.54,16.93 -10.95,-19.024 -139.135,-10.304 c -2.688,-19.032 -7.411,-40.68 -13.477,-54.821 L 1088.84,519.324 c 0.17,-0.347 0.17,-0.523 0.17,-0.871 -1.01,-1.918 -2.19,-4.012 -3.2,-6.105 -3.54,-2.098 -8.42,-2.618 -9.61,0.875 L 960.324,841.809 c -5.39,-8.911 -12.64,-26.543 -21.23,-32.481 -2.356,4.367 -11.453,17.469 -14.653,20.25 27.289,39.289 43.289,106.16 30.493,160.637 l 25.933,2.445 c 3.371,-20.254 6.235,-35.793 3.539,-58.32 l 149.074,11.172 z M 543.426,413.871 c -13.473,0.176 -53.059,0.703 -57.102,-13.094 -4.207,-13.968 16.68,-28.808 54.071,-28.457 15.328,0 43.628,1.391 51.882,18.86 4.547,10.996 -11.625,16.754 -18.867,18.675 l 0.168,-0.167 c -10.945,2.617 -23.414,4.007 -30.152,4.183 z m 55.926,-47.492 h 0.332 c -1.344,-1.047 -2.692,-1.922 -4.211,-2.789 -6.395,-4.012 -12.293,-5.582 -12.293,-5.582 v 0 c -11.793,-4.024 -26.446,-5.942 -45.313,-5.942 -54.746,-0.347 -74.113,33.696 -65.351,51.504 8.925,17.809 55.414,17.11 75.125,16.758 5.89,-0.168 15.832,-0.871 24.593,-2.441 v -0.176 c 15.325,-2.445 34.7,-6.461 38.571,-21.648 0.5,-1.395 0.84,-2.79 0.84,-4.192 0,-1.387 -0.168,-3.316 -0.5,-5.062 -1.184,-9.422 -6.235,-16.063 -11.793,-20.43 z m -104.098,33.18 h 51.375 v -5.063 h -50.527 c 4.035,-7.164 20.039,-13.797 44.125,-13.797 17.851,0.172 33.519,4.719 40.593,8.555 l -0.336,12.922 c -10.105,5.066 -30.652,8.558 -37.562,7.336 -11.285,0.176 -43.961,0.515 -47.504,-8.907 0,-0.351 -0.164,-0.703 -0.164,-1.046 z m 121.613,-20.95 c 0.676,4.707 1.18,10.989 1.18,15.36 -0.168,4.711 -2.863,9.601 -5.723,13.097 l 31.664,24.266 c 7.746,-12.746 15.828,-24.785 24.09,-36.316 l -5.73,-16.407 h -45.481 z m -61.652,275.68 -42.445,0.691 -14.653,1.231 8.93,0.695 42.785,21.653 c 1.684,-8.204 3.535,-16.235 5.383,-24.27 z m -24.758,162.379 -17.348,8.379 16.844,-2.449 c 0.168,-1.918 0.336,-3.84 0.504,-5.93 z m 213.922,-539.504 -61.484,-0.523 7.75,13.964 22.57,50.813 c 11.453,-11.523 23.082,-22.004 35.207,-31.43 l -4.043,-32.824 z m 95,-76.648 -57.777,1.398 8.925,22.172 8.086,52.73 c 11.961,-5.769 28.301,-11.347 40.766,-15.015 v -61.285 z m 42.953,-25.317 69.734,0.348 -4.55,8.203 -5.051,71.941 c -12.633,-2.273 -25.438,-3.492 -38.574,-3.492 -2.696,0 -5.559,0.172 -8.25,0.172 l -6.239,-61.101 -7.07,-16.071 z m 123.128,90.27 h 47.34 l -11.46,31.429 c -11.63,-7.867 -23.58,-14.671 -35.71,-20.609 l -0.17,-10.82 z m 52.72,-14.672 h -52.89 l 1.18,-64.074 -4.21,-22.692 h 66.87 l 12.8,17.11 -6.4,40.679 -12.8,16.231 -4.55,12.746 z m 185.29,299.609 h 58.11 l 49.35,-78.57 h -70.57 l -13.48,27.769 -23.41,50.801 z m 36.89,-93.23 h 72.26 l -14.15,-35.102 -70.75,1.047 12.64,34.055 z m 60.46,273.933 -10.94,-36.316 -67.38,6.633 v 0 c 3.37,18.34 6.4,36.847 8.77,55.883 l 68.54,-26.024 1.01,-0.176 z m -69.05,-42.074 63.5,-7.16 49.69,-53.945 -67.88,7.504 -45.31,53.601 z m 45.48,-67.394 70.07,-5.411 -2.02,-40.332 -71.42,6.633 3.37,39.11 z m 35.54,263.984 0.34,-47.84 -74.12,7.86 c 0.85,16.765 1.17,33.875 1.17,50.98 0,2.621 0,5.242 0,7.684 l 72.61,-18.684 z m -59.79,-52.727 63.66,-6.453 45.82,-32.82 -61.82,8.547 -47.66,30.726 z m 55.92,-45.566 67.2,-6.113 -1.01,-43.824 -70.07,8.21 3.88,41.727 z m -800.943,558.358 -4.715,-0.53 -17.184,-41.9 21.899,-27.41 v 69.84 z m 0,-148.4 -42.282,13.96 -13.812,-47.66 56.094,-55.52 v 89.22 z m 55.582,-242.52 c -1.176,-20.258 -0.844,-36.668 -0.844,-58.145 0,-294.715 128.187,-535.133 285.176,-535.133 54.91,0 106.453,29.688 150.249,81.012 -0.17,-0.172 -0.34,-0.172 -0.51,-0.172 3.03,3.664 6.4,7.684 9.1,11.168 0.17,0 0.33,0 0.33,-0.168 2.2,2.965 4.39,5.758 6.58,8.731 0.5,0.527 0.67,0.871 0.67,0.871 v 0 c 1.68,2.269 3.37,4.535 5.05,6.984 -3.03,-1.746 -6.23,-3.316 -9.26,-4.887 -0.67,-0.871 -1.18,-1.746 -1.86,-2.625 -0.5,-0.343 -0.84,-0.695 -1.18,-1.222 -1.51,-3.313 -28.46,-32.473 -28.46,-32.473 0,0 0.17,0 0.51,-0.172 -26.118,-24.793 -64.176,-48.363 -111.18,-45.918 -93.317,4.891 -149.403,78.914 -156.985,86.418 -7.41,7.512 -2.859,12.926 -2.859,12.926 l 29.977,71.234 c -3.872,1.047 -7.747,2.446 -11.622,3.844 -4.378,-9.254 -24.593,-53.254 -28.125,-59.891 -4.043,-7.507 -12.128,-1.394 -12.128,-1.394 0,0 -8.762,12.402 -11.118,17.808 -2.191,5.411 2.356,14.493 2.356,14.493 l 22.91,42.078 c -3.539,2.265 -7.074,4.539 -10.441,7.16 l -23.247,-46.793 c -54.914,103.008 -80.347,241.809 -80.347,361.059 l 141.656,10.125 c 5.055,5.769 17.016,17.113 21.227,19.378 L 627.313,909.199 v 48.364 L 603.559,954.77 Z M 1100.8,541.855 c 2.18,4.887 4.55,9.774 6.73,14.836 l -87.92,253.512 c 11.62,26.012 19.54,54.82 22.91,84.504 l -19.2,-1.047 c -4.55,-25.32 -12.46,-50.633 -22.41,-74.203 l 96.18,-275.16 c 0.68,-1.57 2.03,-2.277 3.71,-2.442 z m 12.29,27.93 c 37.4,90.617 59.63,203.926 59.63,326.84 0,2.449 -0.33,3.492 -0.33,5.766 l -97.53,-5.934 c -3.04,-38.246 -16.17,-86.426 -31.84,-113.492 l 70.07,-213.18 z M 868.016,1722.99 v -87.83 l 17.347,-9.59 v 87.47 l -17.347,9.95 z m -9.094,-82.24 v 88 l -18.699,11.7 v -87.48 l 18.699,-12.22 z m -29.149,9.95 -0.332,94.98 -21.39,13.27 v -105.63 l 12.629,-7.68 9.093,5.06 z m -137.105,127.98 -43.121,-20.59 v -118.04 l 43.121,16.25 v 122.38 z m -53.902,-25.66 -32.34,-15.37 v -113.83 l 32.34,12.04 v 117.16 z m -43.121,-20.6 -37.059,-17.64 v -108.94 l 37.059,13.79 v 112.79 z m -37.059,-140.03 v -116.46 l 37.059,12.57 v 117.86 l -37.059,-13.97 z m 0,-129.73 v -118.54 l 37.059,9.08 v 122.04 l -37.059,-12.58 z m 0,-131.64 v -112.26 l 37.059,6.63 v 114.71 l -37.059,-9.08 z m 0,-125.18 v -119.6 l 37.059,5.41 v 120.82 l -37.059,-6.63 z m 0,-226.457 v -11.344 l -20.043,-2.098 c 0,0 7.41,5.063 20.043,13.442 z m 37.059,-7.68 v 31.247 c 3.371,2.1 7.07,4.2 10.781,6.47 v -36.666 l -10.781,-1.051 z m 43.121,4.367 v 52.03 c 3.535,1.92 7.074,3.84 10.781,5.76 v -56.739 l -10.781,-1.051 z m 53.902,5.586 v 43.474 l 10.777,-4.19 v -38.237 l -10.777,-1.047 z m 0,61.984 v 12.22 c 3.531,1.57 7.074,3.32 10.777,4.89 v -21.3 l -10.777,4.19 z m 64.68,-55.527 v 11.7 l 23.414,-9.25 -23.414,-2.45 z m 0,30.557 v 63.72 c 1.347,0.53 2.863,1.06 4.382,1.58 l 40.258,-82.59 -44.64,17.29 z m 0,97.08 v 125.53 l -53.903,-9.6 v -123.97 l 53.903,8.04 z m 0,138.45 v 125.36 l -53.903,-13.1 V 1244.6 l 53.903,9.6 z m 0,138.46 v 137.4 l -53.903,-18.16 v -132.34 l 53.903,13.1 z m 0,150.84 v 123.79 l -53.903,-20.43 v -121.69 l 53.903,18.33 z m -64.68,-437.36 v 123.62 l -43.121,-7.69 v -122.39 l 43.121,6.46 z m -53.902,-8.03 v 122.04 l -32.34,-5.76 V 1093.4 l 32.34,4.71 z m 53.902,144.57 v 121.16 l -43.121,-10.64 v -118.21 l 43.121,7.69 z m -53.902,-9.61 v 117.5 l -32.34,-7.85 v -115.41 l 32.34,5.76 z m 53.902,143.7 v 131.46 l -43.121,-14.66 v -127.28 l 43.121,10.48 z m -53.902,-13.1 v 126.23 l -32.34,-11 v -123.08 l 32.34,7.85 z m 53.902,157.84 v 121.34 l -43.121,-16.24 v -119.77 l 43.121,14.67 z m -53.902,-18.34 v 119.43 l -32.34,-12.22 v -118.2 l 32.34,10.99 z m 526.884,256.83 58.28,-35.96 v -67.92 L 1165.65,1760 Z m -3.71,-327.71 82.03,20.77 -82.03,138.63 z m 119.77,29.33 26.1,7.51 33.69,-19.56 v 317.41 l -59.79,31.26 v -336.62 z m -373.272,137.23 -69.735,38.24 v -288.44 l 69.735,17.64 v 232.56 z m 51.21,-219.81 50.872,13.09 v 52.55 l -51.04,33.53 0.168,-99.17 z m 12.801,112.09 43.621,-28.47 c 26.45,6.82 58.45,15.02 69.57,43.83 v 147.01 l -53.23,29.68 v -163.77 c -1.01,-12.05 -28.46,-21.82 -59.961,-28.28 z m -14.152,139.15 21.726,8.9 v -86.25 l -21.726,-8.73 v 86.08 z m 338.903,-719.159 57.26,-13.441 52.9,5.582 -56.93,15.89 -53.23,-8.031 z m 58.95,24.09 66.88,-22.34 0.67,41.723 -65.69,24.965 -1.86,-44.348 z m -7.92,61.809 v 36.49 l -67.37,26.02 c -1,-0.53 -2.18,-1.23 -3.2,-1.92 1.18,-19.91 1.35,-39.82 0.5,-59.544 l 2.02,-1.046 h 68.05 z m -53.73,72.98 58.29,-24.79 64.84,26.19 -69.56,29.15 c -13.81,-10.12 -36.05,-20.42 -53.57,-30.55 z m 58.45,44.7 69.74,-30.91 v 38.94 l -67.21,29.86 -2.53,-37.89 z m -29.13,207.59 74.78,-43.47 v -28.46 l -74.28,42.43 -0.5,29.5 z m 71.41,-85.55 -53.89,-52.38 -68.22,37.71 51.37,53.43 70.74,-38.76 z m -131.71,-28.63 69.89,-37.02 -0.33,-5.24 -21.06,-1.57 -47.66,-10.48 c 1.01,18.16 0.67,36.15 -0.84,54.31 z M 758.527,595.102 c 0,0 14.321,4.546 8.254,8.031 -6.07,3.488 -19.207,3.488 -24.426,6.98 -5.218,3.672 -6.738,8.035 0.676,8.91 7.582,1.047 9.434,2.79 10.102,9.95 0.847,7.156 0,33.875 0,33.875 0,0 -5.219,5.062 -10.778,8.726 0.508,-10.652 0.844,-16.41 -0.167,-12.746 -0.504,-1.047 -3.536,7.508 -6.231,16.242 -0.508,0.172 -1.184,0.348 -1.684,0.348 -0.339,0 -0.843,0.176 -1.011,0.176 -4.039,0.695 -7.922,1.394 -11.625,2.094 1.855,-16.415 3.703,-27.239 2.359,-22.348 -0.676,-1.402 -5.391,13.445 -8.594,23.746 -3.195,0.695 -6.062,1.57 -8.754,2.266 3.707,-15.715 6.567,-27.063 3.2,-25.141 -1.008,-1.746 -7.582,18.332 -10.446,27.41 -12.297,4.363 -19.203,9.254 -19.203,14.488 0,4.719 5.563,9.254 15.5,13.102 -0.336,4.535 -0.679,9.074 -0.679,11.519 0,5.243 -0.672,16.938 -0.672,16.938 0,0 5.222,11.523 7.586,18.676 2.187,7.168 10.437,1.754 2.187,-9.77 -5.73,-7.168 -5.73,-20.777 -3.707,-35.621 3.367,1.219 7.242,2.27 11.457,3.32 -0.172,2.266 -0.172,4.188 -0.172,5.586 0,5.235 2.192,10.649 2.192,10.649 0,0 2.355,17.808 4.543,24.969 2.191,7.156 24.089,21.472 7.586,0.867 -5.731,-6.977 -7.415,-23.043 -7.075,-40.5 4.039,1.047 8.418,1.742 13.137,2.617 0,1.57 0,2.965 0,4.019 0,5.411 3.031,8.028 3.031,8.028 0,0 5.223,30.379 7.578,37.539 2.192,6.984 24.09,21.297 7.414,0.871 -6.234,-7.855 -8.421,-27.934 -8.929,-49.059 9.769,1.395 20.383,2.621 31.672,3.317 5.05,23.918 17.007,37.359 28.293,57.094 -30.993,11.355 -50.696,47.668 -51.036,67.043 -47.839,-26.184 -79.667,-78.743 -79.667,-139.153 0,-86.07 66.699,-156.437 148.726,-156.437 51.715,0 155.977,50.109 135.262,131.64 -8.09,-3.136 -21.059,-6.101 -34.031,-8.55 -3.868,-8.208 -13.809,-29.504 -14.821,-27.766 -6.062,-2.789 1.012,10.484 5.903,26.195 -7.25,-1.219 -14.997,-2.097 -23.25,-2.972 0,-0.172 -0.164,-0.348 -0.164,-0.524 -4.555,-6.109 -11.29,-13.266 -11.29,-13.266 0,0 2.188,-21.48 -3.035,-22.351 -5.39,-0.867 -7.582,-5.41 -7.582,-5.41 l -14.312,-19.551 c 0,0 -5.223,-8.035 -12.129,-11.52 -6.738,-3.671 -11.961,-18.867 -11.961,-18.867 79.844,-9.773 115.047,79.102 113.535,82.762 0,0 9.09,2.617 0.672,-13.445 -17.18,-52.899 -61.648,-83.801 -126.84,-84.153 -13.305,0.352 -19.031,0.524 -18.695,3.145 -8.418,-5.59 -9.77,10.305 -9.77,10.305 l 10.274,15.707 c 0,0 4.379,5.414 5.894,23.222 0.676,8.031 5.395,13.965 10.11,17.981 -1.18,-0.524 -2.192,-0.871 -3.204,-1.043 -6.062,-0.883 -14.316,-18.684 -13.64,-24.973 0.84,-6.289 -3.031,-15.187 -9.77,-17.805 -6.738,-2.789 -8.257,-13.445 -8.257,-13.445 0,0 -7.747,-4.363 -15.157,-4.363 -5.054,-0.18 -58.449,31.597 -38.91,34.922 10.445,1.742 34.531,-14.496 34.531,-14.496 z m 537.153,737.668 v 17.46 l -37.06,19.73 -34.36,-19.21 c 7.42,-19.21 12.47,-38.06 15.5,-58.66 l 55.92,40.68 z m -271.69,-260.68 c 3.7,-9.77 10.27,-24.26 15.33,-55.34 l -19.2,-1.92 c -0.34,7.86 -12.97,50.98 -22.065,64.08 l 25.935,-6.82 z m 47.49,-51.68 c -0.33,6.29 -4.03,27.24 -9.59,40.69 55.76,-16.06 98.37,-31.6 98.37,-31.6 l -88.78,-9.09 z m -116.05,40.86 c 6.57,-9.95 14.656,-22.87 21.062,-50.81 l -26.113,-2.79 c -3.707,14.67 -8.586,31.26 -16.172,39.81 l 21.223,13.79 z m -78.489,182.98 116.051,26.19 -44.465,-113.49 c -16,1.57 -31.5,3.32 -46.66,3.14 l -24.926,84.16 z m -73.949,-35.45 v 19.21 h 30.828 v -19.55 c -7.242,1.57 -22.57,1.92 -30.828,0.34 z m 48.68,-18.32 3.539,3.48 22.91,-74.37 c -4.043,0.34 -10.445,0.52 -14.488,0.87 l -15.664,51.15 c 2.863,4.37 7.582,13.1 3.703,18.87 z M 961.664,759.57 c -7.574,22.52 -19.371,39.629 -35.199,58.317 -26.953,30.027 -65.188,48.711 -107.301,48.711 -7.914,0 -15.496,-0.703 -23.074,-1.922 -0.168,-5.93 0.504,-12.223 3.707,-15.363 48.512,-33.348 120.937,-38.407 161.867,-89.743 z m -207.855,119.426 -65.02,-4.016 c -3.195,-25.492 -0.332,-75.421 -0.332,-75.421 l -0.34,-2.621 c 15.16,24.964 36.383,45.394 61.821,58.832 -0.172,8.382 0.839,15.714 3.871,23.226 z M 835,1163.24 c -0.84,0.52 -1.855,0.87 -2.695,1.39 -4.043,2.1 -10.45,6.29 -13.813,5.94 -2.699,-0.35 -10.273,-4.02 -14.656,-5.41 v -46.97 c 5.223,0.7 10.445,1.4 15.664,1.74 4.887,0.53 9.941,0.7 14.996,0.87 l 0.504,42.44 z m 4.207,10.47 c -6.398,1.58 -15.328,8.38 -21.391,7.68 -2.523,-0.35 -10.273,-4.36 -12.968,-4.71 -2.696,-0.18 -12.465,0.7 -14.145,6.63 -1.519,5.94 -1.855,4.37 0.332,10.13 2.695,4.02 7.75,10.48 13.813,9.77 7.246,1.58 28.129,0.53 31.328,-1.39 3.371,-2.09 9.437,-7.86 9.437,-15.19 0,-7.16 -6.406,-12.92 -6.406,-12.92 z m -28.297,-12.92 h -3.871 v -29.16 h 3.871 v 29.16 z m 0,-33 h -3.871 v -3.31 h 3.871 v 3.31 z m -9.433,-82.75 h 11.625 v 51.5 c 4.714,0.7 9.261,1.23 13.644,1.57 2.695,0.18 5.559,0.35 8.254,0.53 l -0.84,-54.3 -15.5,-38.06 -17.183,38.76 z m -3.536,48.71 v -41.21 l -16.675,37.19 c 5.73,1.57 11.289,2.97 16.675,4.02 z m 6.567,-4.02 h -4.371 v -5.06 h 4.371 v 5.06 z m 0,-21.82 h -4.371 v -17.12 h 4.371 v 17.12 z m 35.375,-148.586 -0.676,-34.57 c 0,0 33.691,2.969 32.172,24.445 -1.516,22.352 -16.84,36.137 -35.367,35.973 -28.805,0 -53.227,3.312 -64.516,23.043 L 738.82,963.5 c -6.57,-10.309 -2.523,-26.367 7.578,-29.332 8.254,-1.75 27.122,-6.285 33.856,-6.285 6.742,0 46.66,-2.625 46.66,-2.625 6.063,-0.344 13.137,-2.262 12.969,-5.934 z m -65.352,52.555 c 11.114,-12.399 24.082,-19.731 39.918,-19.731 H 835 l 0.504,26.016 -60.973,-6.285 z m 404.759,54.651 -656.075,-67.393 c 0,0 177.707,135.483 302.183,145.613 131.723,10.3 353.892,-78.22 353.892,-78.22 z m -266.977,67.57 c 10.277,-2.28 29.98,-16.76 32.007,-20.96 l -20.722,-12.74 c -11.957,12.74 -30.321,24.96 -48.676,30.03 l 3.367,7.34 c 11.113,-0.88 22.57,-2.1 34.024,-3.67 z m -65.524,-96.729 133.742,84.329 c -3.707,0.87 -7.246,1.57 -10.953,2.27 l -138.453,-86.775 -0.672,-1.57 -1.851,-0.176 18.187,1.922 z m -41.773,-2.094 1.011,-2.101 4.883,0.527 -43.457,92.007 c 3.031,0.88 5.899,1.92 8.93,2.8 l 42.277,-94.108 -27.457,-2.797 -127.676,49.765 c 3.2,1.57 6.403,3.31 9.77,4.89 l 131.719,-50.983 z m -40.762,89.393 c -0.168,0 -0.336,0 -0.336,0 0,0 0.168,0 0.336,0 z m 109.484,13.44 -48.172,-102.833 -6.738,-0.875 43.121,104.238 c 0.336,0 16.004,-0.87 11.789,-0.53 z m 340.922,-75.6 -725.64,-73.155 c 0,0 194.886,152.245 332.168,162.545 145.867,11.7 393.472,-89.39 393.472,-89.39 z M 901.535,716.797 v -36.492 c 4.039,0.351 7.914,0.871 11.621,1.398 2.36,9.777 3.032,19.559 -1.179,26.715 -2.188,2.969 -3.2,5.586 -3.539,7.676 -2.192,0.179 -4.547,0.523 -6.903,0.703 z M 888.063,678.91 c 0.335,9.602 0.5,31.949 -1.688,39.453 -3.707,0.352 -7.582,0.703 -11.453,0.871 -2.192,-4.882 -3.031,-9.421 0.336,-11.691 6.734,-4.539 3.031,-20.602 -2.36,-23.219 -1.851,-0.879 -4.039,-3.324 -6.062,-6.808 7.41,0.343 14.484,0.867 21.227,1.394 z m -38.071,84.852 c -16.172,-9.949 -9.941,0.523 -10.109,-36.836 0.844,0 1.515,0 2.359,0 1.344,3.14 2.863,5.582 2.863,5.582 0,0 12.805,5.414 14.989,21.476 0.336,2.45 1.183,4.192 2.019,5.235 -3.531,1.746 -8.586,2.972 -12.121,4.543 z m 31.832,-14.844 c 1.012,-5.23 2.02,-12.574 0.168,-16.41 -1.008,-1.918 -2.527,-4.535 -4.211,-7.504 11.621,-1.047 22.574,-2.274 32.34,-3.848 0.844,0.524 1.688,0.356 2.531,-0.351 8.258,-1.219 18.36,-3.485 24.926,-5.059 -7.918,12.051 -30.992,24.09 -55.754,33.172 z m 71.758,-57.438 c -0.672,6.286 -5.559,14.137 -9.598,17.985 -7.754,2.617 -16.004,3.668 -23.754,4.887 v 0 c -1.515,0.171 -3.203,0.523 -4.886,0.695 1.683,-4.887 3.871,-9.43 5.566,-14.141 0.328,-4.191 0.664,-7.679 0.664,-7.679 v -10.125 c 13.481,2.261 25.438,5.234 32.008,8.378 z M 742.02,681 c -0.512,10.301 -0.844,22.875 -0.844,35.273 9.269,1.223 19.535,2.266 30.492,2.961 -1.852,-8.894 -3.871,-18.851 -5.73,-27.754 -3.032,-15.191 -16.508,-9.777 -20.215,-9.777 -0.84,0 -2.188,-0.351 -3.703,-0.703 z m -10.106,34.047 c -0.336,-5.934 -0.508,-12.043 -0.508,-12.043 l -0.84,-10.652 c 0,0 1.348,-4.715 3.204,-10.477 -4.547,0.523 -8.762,1.227 -12.805,1.922 -0.84,9.078 -1.688,19.207 -2.02,29.156 4.039,0.699 8.25,1.399 12.969,2.094 z m -19.707,-3.484 c 0.504,-6.118 1.008,-12.047 1.008,-12.047 l -0.844,-10.661 c 0,0 0.34,-1.398 1.012,-3.492 -2.863,0.703 -5.727,1.403 -8.254,2.094 -1.516,6.645 -3.031,13.969 -4.043,20.961 3.203,1.047 6.91,2.094 11.121,3.145 z m -16.172,-4.899 c 0.336,-3.66 0.504,-6.281 0.504,-6.281 l 1.352,-10.473 c -7.075,2.613 -10.95,5.582 -10.95,8.727 0,2.789 3.2,5.41 9.094,8.027 z m 177.199,-35.789 c -3.035,-0.176 -6.062,-0.348 -9.265,-0.52 -1.856,-6.113 -3.031,-13.964 -2.356,-23.57 1.516,-21.301 -14.992,-25.847 -20.383,-27.59 -5.218,-1.746 -14.992,-0.871 -16.507,-9.777 -1.512,-8.902 -6.063,-16.063 -9.77,-17.805 -2.859,-1.398 -5.894,-7.511 -11.117,-13.617 7.75,4.879 19.203,9.777 20.887,11.699 3.707,4.535 10.617,16.055 10.617,16.055 0,0 3.699,5.418 11.957,8.035 8.254,2.793 14.316,16.063 14.316,16.063 0,0 -0.675,11.699 4.543,17.804 5.223,6.286 6.742,16.071 6.742,16.071 0,0 -0.168,4.007 0.336,7.152 z m -39.246,-1.574 c -2.023,-0.164 -4.043,-0.164 -6.234,-0.164 -0.84,-1.227 -1.516,-1.75 -1.516,-1.75 0,0 -3.027,-12.567 -3.027,-17.813 0,-2.969 -2.363,-6.808 -5.395,-9.781 3.875,2.453 6.907,3.5 6.907,3.5 0,0 11.289,-5.418 9.097,15.187 -0.504,3.844 -0.336,7.504 0.168,10.821 z m 6.739,51.34 c -0.168,-3.321 0.671,-6.637 4.378,-8.735 9.77,-5.242 -0.839,-20.426 -0.839,-20.426 0,0 -5.563,-5.414 -8.762,-15.191 -1.18,0 -2.359,0 -3.539,0 3.375,7.856 7.242,21.477 7.75,44.516 0.336,0 0.676,0 1.012,-0.164"
         style="fill:#740232;fill-opacity:1;fill-rule:evenodd;stroke:none"
         id="path14" />
    </g>
  </g>
</svg>
